<svg width="512" height="512" viewBox="0 0 512 512" fill="none" xmlns="http://www.w3.org/2000/svg">
<path d="M256 456.348C199.76 456.348 148.933 433.175 112.545 395.857C180.65 387.648 247.227 360.227 303.697 312.843C379.412 249.31 422.94 161.65 432.47 70.5425C386.547 26.8307 324.407 0 256 0C114.615 0 0 114.615 0 256C0 268.432 0.886205 280.657 2.59889 292.616C21.6154 297.408 41.092 300.106 60.6537 300.677C44.4931 229.75 67.6613 152.499 127.219 102.525C198.854 42.4155 300.209 41.0035 372.816 93.1735C359.517 160.033 324.208 222.983 267.924 270.211C194.491 331.828 100.902 353.637 13.3914 337.931C47.5562 439.134 143.269 512 256 512C397.385 512 512 397.385 512 256C512 253.267 511.957 250.543 511.872 247.83C502.274 255.724 492.275 263.134 481.914 270.025C472.871 276.039 463.553 281.66 453.985 286.863C439.143 382.859 356.153 456.348 256 456.348Z" fill="#1C53BD"/>
</svg>
